<svg width="82" height="84" viewBox="0 0 82 84" fill="none" xmlns="http://www.w3.org/2000/svg">
<g clip-path="url(#clip0_211_23)">
<path d="M47.8317 48.9999H81.9986V84.0001H47.8317V48.9999Z" fill="#ED1E24"/>
<path d="M41.0001 76.9996C22.1294 76.9996 6.83401 61.3288 6.83401 42.0001C6.83401 22.6675 22.1309 7.00069 41.0001 7.00069C59.8686 7.00069 75.1663 22.6683 75.1663 42.0001H82.0003C82.0003 18.8055 63.6425 0 41.0001 0C18.357 0 0 18.8055 0 42.0001C0 65.1948 18.357 84.0003 41.0001 84.0003V76.9996Z" fill="#ED1E24"/>
<path d="M41.002 62.9997C29.68 62.9997 20.5015 53.5975 20.5015 42.0001C20.5015 30.3996 29.68 20.9997 41.002 20.9997C52.3233 20.9997 61.5018 30.3996 61.5018 42.0001H68.3357C68.3357 26.5368 56.0972 13.9998 41.002 13.9998C25.9061 13.9998 13.6683 26.5368 13.6683 42.0001C13.6683 57.4635 25.9061 70.0005 41.002 70.0005V62.9997Z" fill="#ED1E24"/>
<path d="M40.9981 49.0002C37.2242 49.0002 34.1642 45.8664 34.1642 42.0003C34.1642 38.1343 37.2242 34.9997 40.9981 34.9997C44.7722 34.9997 47.8314 38.1343 47.8314 42.0003H54.6646C54.6646 34.269 48.5453 28.0005 40.9981 28.0005C33.4486 28.0005 27.3317 34.269 27.3317 42.0003C27.3317 49.7315 33.4486 56 40.9981 56V49.0002Z" fill="#ED1E24"/>
</g>
<defs>
<clipPath id="clip0_211_23">
<rect width="82" height="84" fill="white"/>
</clipPath>
</defs>
</svg>
