<svg width="81" height="84" viewBox="0 0 81 84" fill="none" xmlns="http://www.w3.org/2000/svg">
<g clip-path="url(#clip0_211_46)">
<g clip-path="url(#clip1_211_46)">
<path d="M40.502 13.9998C25.5902 13.9998 13.5017 26.5368 13.5017 42.0001C13.5017 57.4635 25.5902 70.0005 40.502 70.0005C55.4131 70.0005 67.5024 57.4635 67.5024 42.0001C67.5024 26.5368 55.4131 13.9998 40.502 13.9998ZM40.502 62.9997C29.3181 62.9997 20.2515 53.5975 20.2515 42.0001C20.2515 30.3996 29.3181 20.9997 40.502 20.9997C51.6852 20.9997 60.7518 30.3996 60.7518 42.0001C60.7518 53.5975 51.6852 62.9997 40.502 62.9997Z" fill="#21B157"/>
<path d="M53.9979 42.0003C53.9979 49.7315 47.9532 56 40.4981 56C33.0422 56 26.9983 49.7315 26.9983 42.0003C26.9983 34.2682 33.0422 28.0005 40.4981 28.0005C47.9532 28.0005 53.9979 34.2682 53.9979 42.0003Z" fill="#21B157"/>
<path d="M81.0003 0H40.5001C26.4071 0 14.0058 7.47494 6.75144 18.7991V0H0V42.0001C0 56.6152 7.20797 69.4774 18.1308 76.9996H0V84.0003H40.5001C54.5932 84.0003 66.9961 76.5254 74.2497 65.198V84.0003H81.0003V42.0001C81.0003 27.3852 73.7924 14.5237 62.8695 7.00069H81.0003V0ZM74.2497 42.0001C74.2497 61.3288 59.1385 76.9996 40.5001 76.9996C21.8595 76.9996 6.75067 61.3288 6.75067 42.0001H6.75221V41.9657C6.76921 22.6507 21.8719 7.00069 40.5001 7.00069C59.1385 7.00069 74.2497 22.6675 74.2497 42.0001Z" fill="#21B157"/>
</g>
</g>
<defs>
<clipPath id="clip0_211_46">
<rect width="81" height="84" fill="white"/>
</clipPath>
<clipPath id="clip1_211_46">
<rect width="81" height="84" fill="white"/>
</clipPath>
</defs>
</svg>
