<svg width="81" height="84" viewBox="0 0 81 84" fill="none" xmlns="http://www.w3.org/2000/svg">
<g clip-path="url(#clip0_211_41)">
<g clip-path="url(#clip1_211_41)">
<path d="M13.4998 28.0003C6.04694 28.0003 0 21.7318 0 13.9998C0 6.2677 6.04694 0 13.4998 0C20.955 0 26.9996 6.2685 26.9996 13.9998C26.9996 21.7311 33.045 28.0003 40.5001 28.0003C47.9553 28.0003 53.9999 21.7318 53.9999 14.0006C53.9999 6.2693 60.0453 0 67.5005 0C74.9556 0 81.0003 6.2685 81.0003 13.9998C81.0003 21.7311 74.9556 27.9996 67.5005 27.9996C45.1304 27.9996 27.0003 46.8091 27.0003 69.9989C27.0003 77.7262 20.9557 83.9987 13.5005 83.9987C6.0454 83.9987 0 77.7318 0 70.0005C0 62.2692 6.04462 55.9999 13.4998 55.9999C20.955 55.9999 26.9981 49.7314 26.9981 42.0001C26.9981 34.2688 20.9557 28.0003 13.4998 28.0003Z" fill="#601EED"/>
<path d="M37.1233 61.2497C37.1233 48.6781 46.943 38.4996 59.0616 38.4996C71.1802 38.5004 80.9985 48.6781 80.9985 61.2497C80.9985 73.8155 71.1802 84.0005 59.0601 84.0005C46.9415 84.0005 37.1233 73.8155 37.1233 61.2497Z" fill="#601EED"/>
</g>
</g>
<defs>
<clipPath id="clip0_211_41">
<rect width="81" height="84" fill="white"/>
</clipPath>
<clipPath id="clip1_211_41">
<rect width="81" height="84" fill="white"/>
</clipPath>
</defs>
</svg>
